<svg width="301" height="176" viewBox="0 0 301 176" fill="none" xmlns="http://www.w3.org/2000/svg">
<g clip-path="url(#clip0_948_13757)">
<g opacity="0.8">
<path fill-rule="evenodd" clip-rule="evenodd" d="M134.22 8.89465C179.538 -0.0156393 223.498 29.5003 232.409 74.8184C241.318 120.135 211.803 164.095 166.486 173.005C121.167 181.914 77.2069 152.4 68.2977 107.083C59.3875 61.7637 88.9035 17.805 134.22 8.89465Z" fill="#F9F9F9"/>
<path fill-rule="evenodd" clip-rule="evenodd" d="M193.133 48.4489C192.083 48.6558 190.955 48.4617 189.997 47.8175C188.078 46.53 187.569 43.9337 188.856 42.0159L192.152 37.1062C193.439 35.1884 196.036 34.6782 197.954 35.9656C199.871 37.2541 200.382 39.8505 199.094 41.7683L195.798 46.6769C195.155 47.6363 194.183 48.243 193.133 48.4489ZM153.589 31.2354C151.469 31.4434 150.61 34.0719 152.194 35.4933L158.435 41.0944C159.542 42.0892 159.712 43.7637 158.827 44.9589L157.777 46.3729C157.143 47.2283 156.091 47.6646 155.04 47.5091L150.735 46.8735C149.98 46.7609 149.209 46.955 148.594 47.4106L127.228 64.6759L124.944 73.5497C124.529 75.1609 123.228 76.3091 121.696 76.6091C121.104 76.7271 120.477 76.7163 119.851 76.5566C117.614 75.981 116.269 73.6998 116.844 71.4625L117.582 68.5918L115.812 68.3303C111.092 67.6313 106.67 70.9234 105.986 75.6444C105.712 77.5235 106.779 79.3385 108.552 80.0148L128.804 87.7406C128.804 87.7406 137.642 91.3193 139.542 93.5959L146.82 103.397C147.732 104.626 149.094 105.442 150.608 105.664L151.894 105.854C154.164 106.19 156.206 107.413 157.576 109.255L158.65 110.702C160.461 113.142 160.859 116.354 159.699 119.162L156.931 125.868C156.293 127.411 154.688 128.321 153.037 128.077L151.245 127.812C149.695 127.584 148.175 128.371 147.468 129.767L144.506 136.475C143.666 138.378 142.168 139.915 140.287 140.803L133.802 143.867L132.219 154.576C131.932 156.527 130.095 157.861 128.151 157.53L128.128 157.528C126.762 157.296 125.659 156.283 125.31 154.941L122.669 144.755C121.7 141.016 121.49 137.121 122.055 133.3L123.471 123.709C123.807 121.444 123.057 119.156 121.446 117.529L113.769 109.779C112.158 108.152 111.406 105.862 111.741 103.599L112.803 96.4031L115.27 91.5305L102.093 86.5024C96.7052 84.4475 92.7566 79.7618 91.6434 74.1029L90.3164 67.3505L89.3352 67.2068C86.2386 66.7491 83.7827 64.3607 83.2371 61.2777L80.2891 45.3823C87.1766 34.8019 96.3268 26.047 106.931 19.5916L110.391 24.1485C111.341 25.4263 113.146 25.6933 114.427 24.7435L116.532 23.1805C118.988 21.3571 122.068 20.5831 125.094 21.0302L125.567 21.1009C127.212 21.3432 128.339 22.8825 128.077 24.5226L127.688 26.956C127.359 29.0057 129.505 30.5547 131.347 29.5995L141.444 24.3629C142.338 23.8988 143.356 23.7283 144.352 23.8763L163.532 26.7095L163.002 30.307L153.589 31.2354ZM232.336 107.448C228.777 125.13 219.837 140.323 207.623 151.8C204.89 150.598 201.901 148.135 201.223 145.561L198.294 134.475C197.496 131.454 197.321 128.303 197.777 125.212L199.192 115.632C199.891 110.905 196.625 106.507 191.898 105.809L191.685 105.778C188.12 105.25 184.822 103.582 182.286 101.021L181.907 100.638C178.218 96.9135 176.497 91.6695 177.264 86.4818C177.573 84.386 178.28 82.3686 179.345 80.5366L182.599 74.9505C184.379 71.8932 187.84 70.2262 191.34 70.744L197.921 71.7163C201.023 72.1752 203.943 73.469 206.367 75.4576L211.572 79.7272C214.069 81.7768 217.525 82.2035 220.447 80.8227L222.696 79.7616C224.239 79.0315 225.966 78.7753 227.655 79.0251L233.157 79.7262C234.376 88.7215 234.228 98.0478 232.336 107.448ZM230.705 67.9476L206.045 62.3959L203.438 65.0136C202.209 66.9057 199.99 67.908 197.758 67.5778L192.862 66.8542C189.711 66.389 187.535 63.4571 187.999 60.3055L188.146 59.7963C188.529 57.2043 189.468 55.4205 192.072 55.1311L198.076 54.4643C199.284 54.251 200.426 53.7578 201.412 53.0257C203.095 51.7757 204.214 49.9073 204.52 47.8319L205.416 41.772C205.557 40.8169 206.072 39.9593 206.844 39.3836L212.795 35.4602C221.073 44.7896 227.236 55.8686 230.705 67.9476Z" fill="#E8E8E8"/>
<path fill-rule="evenodd" clip-rule="evenodd" d="M193.133 48.4489C192.083 48.6557 190.955 48.4617 189.997 47.8175C188.078 46.53 187.569 43.9337 188.856 42.0159L192.152 37.1062C193.439 35.1884 196.036 34.6782 197.954 35.9656C199.871 37.2541 200.382 39.8505 199.094 41.7683L195.798 46.6769C195.155 47.6363 194.183 48.243 193.133 48.4489ZM153.589 31.2354C151.469 31.4434 150.61 34.0719 152.194 35.4933L158.435 41.0944C159.542 42.0892 159.712 43.7637 158.827 44.9589L157.777 46.3729C157.143 47.2283 156.091 47.6646 155.04 47.5091L150.735 46.8735C149.98 46.7609 149.209 46.955 148.594 47.4106L127.228 64.6759L124.944 73.5497C124.529 75.1609 123.228 76.309 121.696 76.6091C121.104 76.727 120.477 76.7163 119.851 76.5566C117.614 75.981 116.269 73.6998 116.844 71.4625L117.582 68.5918L115.812 68.3303C111.092 67.6313 106.67 70.9234 105.986 75.6444C105.712 77.5235 106.779 79.3385 108.552 80.0148L128.804 87.7406C128.804 87.7406 137.642 91.3193 139.542 93.5959L146.82 103.397C147.732 104.626 149.094 105.442 150.608 105.664L151.894 105.854C154.164 106.19 156.206 107.413 157.576 109.255L158.65 110.702C160.461 113.142 160.859 116.354 159.699 119.162L156.931 125.868C156.293 127.411 154.688 128.321 153.037 128.077L151.245 127.812C149.695 127.584 148.175 128.371 147.468 129.767L144.506 136.475C143.666 138.378 142.168 139.915 140.287 140.803L133.802 143.867L132.219 154.576C131.932 156.527 130.095 157.861 128.151 157.53L128.128 157.528C126.762 157.296 125.659 156.284 125.31 154.941L122.669 144.755C121.7 141.016 121.49 137.121 122.055 133.3L123.471 123.709C123.807 121.444 123.057 119.156 121.446 117.529L113.769 109.779C112.158 108.152 111.406 105.862 111.741 103.599L112.803 96.4031L115.27 91.5305L102.093 86.5024C96.7052 84.4475 92.7566 79.7618 91.6434 74.1029L90.3164 67.3505L89.3352 67.2068C86.2386 66.7491 83.7827 64.3607 83.2371 61.2777L80.2891 45.3823C87.1766 34.8019 96.3268 26.047 106.931 19.5916L110.391 24.1485C111.341 25.4263 113.146 25.6933 114.427 24.7435L116.532 23.1805C118.988 21.3571 122.068 20.5831 125.094 21.0302L125.567 21.1009C127.212 21.3432 128.339 22.8825 128.077 24.5226L127.688 26.956C127.359 29.0057 129.505 30.5547 131.347 29.5995L141.444 24.3629C142.338 23.8988 143.356 23.7283 144.352 23.8763L163.532 26.7095L163.002 30.307L153.589 31.2354ZM232.336 107.448C228.777 125.13 219.837 140.323 207.623 151.8C204.89 150.598 201.901 148.135 201.223 145.561L198.294 134.475C197.496 131.454 197.321 128.303 197.778 125.212L199.192 115.632C199.891 110.905 196.625 106.507 191.898 105.809L191.685 105.778C188.12 105.25 184.822 103.582 182.286 101.021L181.907 100.638C178.218 96.9135 176.497 91.6687 177.264 86.4818C177.573 84.386 178.28 82.3686 179.345 80.5366L182.599 74.9505C184.379 71.8932 187.84 70.2262 191.34 70.744L197.921 71.7163C201.023 72.1752 203.943 73.469 206.367 75.4576L211.572 79.7272C214.069 81.7768 217.525 82.2035 220.447 80.8228L222.696 79.7616C224.239 79.0315 225.966 78.7753 227.655 79.0251L233.157 79.7262C234.376 88.7215 234.228 98.0478 232.336 107.448ZM230.705 67.9476L206.045 62.3959L203.438 65.0136C202.209 66.9057 199.99 67.908 197.758 67.5778L192.862 66.8542C189.711 66.389 187.535 63.4571 187.999 60.3055L188.146 59.7963C188.529 57.2043 189.468 55.4205 192.072 55.1311L198.076 54.4643C199.284 54.251 200.426 53.7578 201.412 53.0257C203.095 51.7757 204.214 49.9073 204.52 47.8319L205.416 41.772C205.557 40.8169 206.072 39.9593 206.844 39.3836L212.795 35.4602C221.073 44.7896 227.236 55.8686 230.705 67.9476Z" stroke="#D5D5D5" stroke-width="1.5"/>
<path d="M134.39 9.06678C179.708 0.156453 223.668 29.6724 232.578 74.9904C241.488 120.307 211.972 164.267 166.656 173.178C121.337 182.087 77.3767 152.572 68.4675 107.255C59.5571 61.9358 89.0734 17.977 134.39 9.06678Z" stroke="#4C4C4C" stroke-width="1.5"/>
</g>
<g opacity="0.16">
<path d="M73.3086 148.131C73.669 148.077 73.917 147.741 73.8625 147.38C73.8081 147.02 73.4717 146.772 73.1114 146.826L73.3086 148.131ZM242.896 94.1477L242.571 93.573C242.254 93.7525 242.142 94.1547 242.321 94.4715C242.5 94.7892 242.901 94.9009 243.219 94.7232L242.896 94.1477ZM244.745 93.1022L245.071 93.676C245.387 93.4965 245.498 93.0934 245.319 92.7766C245.139 92.4598 244.737 92.3489 244.42 92.5276L244.745 93.1022ZM248.443 91.0201L248.111 90.449C247.799 90.6312 247.69 91.0289 247.867 91.344C248.045 91.6581 248.441 91.7717 248.759 91.5992L248.443 91.0201ZM251.677 89.2584L252.013 89.8269C252.323 89.6438 252.428 89.2461 252.251 88.9328C252.074 88.6195 251.678 88.5069 251.362 88.6793L251.677 89.2584ZM254.361 86.8827C254.049 87.0719 253.95 87.4779 254.139 87.7895C254.328 88.1012 254.734 88.2006 255.045 88.0114L254.361 86.8827ZM62.2742 149.443C62.6373 149.412 62.9066 149.092 62.8756 148.73C62.8445 148.366 62.5249 148.097 62.1617 148.128L62.2742 149.443ZM67.1779 147.62C66.8158 147.662 66.5565 147.99 66.5987 148.352C66.6408 148.715 66.9685 148.973 67.3306 148.931L67.1779 147.62ZM28.1442 142.516C27.6642 140.984 27.9371 139.18 29.0425 137.09C30.1488 134.998 32.0585 132.684 34.7324 130.191C40.0778 125.206 48.3639 119.61 58.9906 113.755C80.2343 102.05 110.708 89.3745 145.374 78.5138L144.979 77.2541C110.255 88.1337 79.6953 100.84 58.3536 112.6C47.6876 118.476 39.2932 124.133 33.8322 129.225C31.1029 131.77 29.0778 134.2 27.8757 136.473C26.6725 138.747 26.263 140.927 26.8846 142.91L28.1442 142.516ZM145.374 78.5138C180.039 67.6526 212.298 60.6736 236.423 58.1641C248.491 56.9088 258.489 56.7757 265.722 57.8191C269.341 58.3411 272.23 59.1523 274.332 60.2385C276.432 61.3239 277.686 62.6498 278.166 64.1819L279.426 63.7872C278.804 61.8033 277.224 60.2472 274.938 59.0658C272.654 57.8855 269.604 57.0454 265.911 56.5126C258.521 55.4467 248.399 55.5912 236.286 56.8511C212.05 59.3723 179.703 66.3749 144.979 77.2541L145.374 78.5138ZM244.419 92.5285C243.808 92.8761 243.192 93.2237 242.572 93.5721L243.219 94.7232C243.84 94.3738 244.458 94.0245 245.071 93.676L244.419 92.5285ZM243.221 94.7223L245.07 93.6769L244.42 92.5276L242.571 93.573L243.221 94.7223ZM251.341 88.6899C251.051 88.8615 250.415 89.2029 249.753 89.5567C249.105 89.9025 248.435 90.2607 248.111 90.449L248.775 91.5904C249.073 91.417 249.713 91.0747 250.375 90.7209C251.022 90.3751 251.692 90.0161 252.013 89.8269L251.341 88.6899ZM248.759 91.5992L251.993 89.8383L251.362 88.6793L248.127 90.4402L248.759 91.5992ZM278.166 64.1819C278.533 65.3548 278.284 66.7561 277.343 68.4166C276.402 70.0757 274.815 71.9127 272.667 73.8936C268.37 77.8521 261.949 82.2746 254.361 86.8827L255.045 88.0114C262.654 83.3911 269.166 78.9141 273.561 74.8642C275.756 72.8409 277.455 70.8965 278.491 69.0674C279.527 67.2397 279.945 65.4458 279.426 63.7872L278.166 64.1819ZM62.1617 148.128C53.101 148.903 44.9318 148.812 38.8254 147.825C35.7697 147.332 33.265 146.62 31.4312 145.702C29.5882 144.781 28.5153 143.7 28.1442 142.516L26.8846 142.91C27.4093 144.585 28.8496 145.887 30.8407 146.883C32.8412 147.884 35.4914 148.624 38.615 149.128C44.8673 150.138 53.1541 150.223 62.2742 149.443L62.1617 148.128ZM73.1114 146.826C71.1124 147.128 69.1309 147.393 67.1779 147.62L67.3306 148.931C69.2987 148.702 71.295 148.436 73.3086 148.131L73.1114 146.826Z" fill="#4C4C4C"/>
<path d="M76.1288 100.977C76.4905 100.933 76.7478 100.603 76.7032 100.242C76.6588 99.88 76.3295 99.623 75.9677 99.667L76.1288 100.977ZM215.514 57.3731L215.176 56.8063C214.863 56.9928 214.761 57.3974 214.947 57.7105C215.133 58.0234 215.537 58.1265 215.851 57.9408L215.514 57.3731ZM217.021 56.4743L217.361 57.0401C217.673 56.8526 217.774 56.4477 217.587 56.1353C217.4 55.8229 216.995 55.721 216.682 55.9075L217.021 56.4743ZM220.034 54.6838L219.687 54.1218C219.381 54.3108 219.283 54.711 219.467 55.0208C219.65 55.3307 220.049 55.4356 220.361 55.2565L220.034 54.6838ZM222.671 53.1735L223.022 53.7329C223.326 53.5422 223.422 53.1427 223.237 52.8344C223.053 52.526 222.655 52.4222 222.343 52.6008L222.671 53.1735ZM224.776 51.054C224.469 51.2517 224.381 51.6602 224.579 51.9665C224.777 52.2728 225.186 52.3608 225.492 52.1631L224.776 51.054ZM66.9854 101.769C67.3495 101.752 67.6301 101.442 67.6122 101.079C67.5943 100.714 67.2847 100.433 66.9206 100.451L66.9854 101.769ZM71.0675 100.175C70.7044 100.205 70.4346 100.524 70.4651 100.888C70.4955 101.251 70.8147 101.52 71.178 101.49L71.0675 100.175ZM242.547 36.1593C242.348 36.4646 242.435 36.8736 242.74 37.0727C243.045 37.2718 243.454 37.1858 243.653 36.8805L242.547 36.1593ZM238.481 42.5962C238.753 42.3531 238.775 41.9358 238.533 41.6642C238.29 41.3925 237.873 41.3694 237.601 41.6124L238.481 42.5962ZM38.5801 93.9356C38.1331 92.4783 38.3152 90.8125 39.1673 88.9301C40.0217 87.0436 41.5338 84.9795 43.6769 82.7759C47.9628 78.369 54.6739 73.5035 63.3301 68.4824C80.6331 58.4456 105.578 47.861 134.062 39.1213L133.674 37.8593C105.125 46.6196 80.0806 57.24 62.6678 67.3406C53.9661 72.3881 47.1375 77.3243 42.7307 81.8555C40.5274 84.1209 38.9048 86.31 37.9648 88.3863C37.0225 90.4666 36.7504 92.4721 37.3182 94.3228L38.5801 93.9356ZM134.062 39.1213C162.545 30.3816 189.134 25.1538 209.089 23.7587C219.071 23.0608 227.357 23.325 233.376 24.5697C236.386 25.192 238.796 26.0528 240.562 27.1357C242.323 28.2158 243.408 29.4933 243.855 30.9503L245.117 30.5631C244.549 28.7128 243.199 27.2048 241.252 26.0105C239.309 24.8191 236.738 23.9168 233.643 23.2769C227.453 21.9972 219.032 21.7403 208.996 22.4419C188.915 23.8459 162.224 29.0992 133.674 37.8593L134.062 39.1213ZM216.681 55.9085C216.183 56.2072 215.683 56.5063 215.177 56.8054L215.851 57.9408C216.357 57.6405 216.861 57.3402 217.361 57.0401L216.681 55.9085ZM215.852 57.9399L217.359 57.041L216.682 55.9075L215.176 56.8063L215.852 57.9399ZM222.321 52.6141C222.089 52.7591 221.575 53.0485 221.033 53.3528C220.508 53.6479 219.956 53.9566 219.687 54.1218L220.38 55.2457C220.618 55.0987 221.138 54.808 221.679 54.5038C222.204 54.2089 222.756 53.8993 223.022 53.7329L222.321 52.6141ZM220.361 55.2565L222.999 53.7462L222.343 52.6008L219.706 54.111L220.361 55.2565ZM66.9206 100.451C59.4247 100.82 52.651 100.419 47.5676 99.271C45.0245 98.6964 42.9356 97.9422 41.397 97.0261C39.8554 96.1083 38.927 95.0655 38.5801 93.9356L37.3182 94.3228C37.7966 95.8821 39.0237 97.1493 40.7217 98.1605C42.4228 99.1733 44.658 99.9671 47.2769 100.558C52.5176 101.741 59.4207 102.142 66.9854 101.769L66.9206 100.451ZM75.9677 99.667C74.3177 99.8703 72.6814 100.039 71.0675 100.175L71.178 101.49C72.8088 101.353 74.4621 101.182 76.1288 100.977L75.9677 99.667ZM243.855 30.9503C244.297 32.3891 243.879 34.1187 242.547 36.1593L243.653 36.8805C245.075 34.6997 245.726 32.5477 245.117 30.5631L243.855 30.9503ZM237.601 41.6124C234.271 44.5911 229.85 47.7792 224.776 51.054L225.492 52.1631C230.591 48.8717 235.078 45.6409 238.481 42.5962L237.601 41.6124Z" fill="#4C4C4C"/>
<path d="M200.172 18.7815C199.916 19.0402 199.916 19.4581 200.175 19.7149C200.434 19.9717 200.852 19.9702 201.109 19.7115L200.172 18.7815ZM65.3654 60.7541C65.7136 60.8618 66.0832 60.6668 66.1909 60.3186C66.2986 59.9704 66.1037 59.6007 65.7554 59.4931L65.3654 60.7541ZM61.3595 56.409C61.0711 55.4687 61.1844 54.3743 61.7622 53.1082C62.3423 51.8371 63.3741 50.4331 64.8507 48.9223C67.8034 45.9014 72.4357 42.5536 78.4253 39.0898C90.3951 32.1674 107.656 24.8549 127.368 18.8064L126.981 17.5445C107.202 23.6133 89.8434 30.9616 77.7645 37.9471C71.7296 41.4372 66.9803 44.8551 63.9068 47.9997C62.3702 49.5716 61.2276 51.1003 60.5614 52.5601C59.8928 54.025 59.6877 55.4601 60.0976 56.7962L61.3595 56.409ZM127.368 18.8064C147.081 12.758 165.473 9.13096 179.265 8.14859C186.167 7.65702 191.879 7.83056 196.019 8.6755C198.089 9.09805 199.73 9.68184 200.923 10.4088C202.112 11.133 202.82 11.9755 203.108 12.9157L204.37 12.5286C203.96 11.1924 202.985 10.1194 201.61 9.28153C200.239 8.44657 198.436 7.82186 196.283 7.38218C191.974 6.50265 186.125 6.33664 179.171 6.83192C165.253 7.82327 146.76 11.4757 126.981 17.5445L127.368 18.8064ZM203.108 12.9157C203.325 13.6215 203.219 14.4588 202.724 15.46C202.228 16.4645 201.367 17.5777 200.172 18.7815L201.109 19.7115C202.354 18.457 203.324 17.2277 203.908 16.0444C204.494 14.8578 204.718 13.6622 204.37 12.5286L203.108 12.9157ZM65.7554 59.4931C63.162 58.6909 61.7262 57.604 61.3595 56.409L60.0976 56.7962C60.6738 58.6741 62.7189 59.9356 65.3654 60.7541L65.7554 59.4931Z" fill="#4C4C4C"/>
<path d="M225.312 141.05C225.413 141.4 225.779 141.603 226.129 141.501C226.48 141.4 226.681 141.034 226.58 140.684L225.312 141.05ZM130.448 176.653C130.811 176.632 131.089 176.319 131.067 175.955C131.046 175.592 130.734 175.314 130.37 175.336L130.448 176.653ZM115.881 172.685C115.718 172.118 115.813 171.42 116.284 170.555C116.758 169.687 117.579 168.712 118.753 167.649C121.099 165.524 124.739 163.151 129.429 160.679C138.796 155.741 152.219 150.476 167.474 146.065L167.107 144.797C151.793 149.224 138.282 154.519 128.813 159.511C124.084 162.005 120.331 164.439 117.867 166.67C116.635 167.785 115.696 168.875 115.125 169.923C114.553 170.973 114.32 172.039 114.613 173.052L115.881 172.685ZM167.474 146.065C182.729 141.655 196.891 138.947 207.448 138.125C212.732 137.714 217.079 137.778 220.196 138.323C221.756 138.596 222.971 138.982 223.834 139.463C224.694 139.944 225.148 140.484 225.312 141.05L226.58 140.684C226.288 139.671 225.521 138.894 224.477 138.311C223.435 137.73 222.059 137.308 220.424 137.023C217.148 136.45 212.676 136.394 207.346 136.808C196.674 137.639 182.422 140.371 167.107 144.797L167.474 146.065ZM130.37 175.336C126.411 175.57 122.866 175.428 120.239 174.923C118.923 174.67 117.872 174.332 117.121 173.926C116.363 173.516 115.997 173.085 115.881 172.685L114.613 173.052C114.868 173.936 115.586 174.596 116.493 175.087C117.408 175.582 118.605 175.953 119.99 176.219C122.764 176.752 126.428 176.891 130.448 176.653L130.37 175.336Z" fill="#4C4C4C"/>
<path d="M106.043 167.847L106.085 168.505C106.449 168.482 106.724 168.169 106.702 167.806C106.68 167.443 106.368 167.166 106.005 167.188L106.043 167.847ZM103.507 167.995L103.468 167.335C103.105 167.357 102.828 167.668 102.848 168.032C102.868 168.394 103.178 168.673 103.541 168.654L103.507 167.995ZM100.652 168.123L100.677 168.782C101.04 168.769 101.325 168.464 101.312 168.1C101.3 167.737 100.996 167.452 100.632 167.463L100.652 168.123ZM98.7498 168.182L98.7287 167.522C98.3652 167.533 98.0792 167.837 98.0898 168.2C98.1003 168.564 98.4022 168.851 98.7656 168.842L98.7498 168.182ZM95.5774 168.884C95.9426 168.883 96.2374 168.588 96.2374 168.223C96.2365 167.859 95.9408 167.563 95.5765 167.564L95.5774 168.884ZM231.14 128.512L230.803 127.943C230.491 128.128 230.386 128.53 230.569 128.843C230.752 129.158 231.154 129.264 231.468 129.084L231.14 128.512ZM234.096 126.761L234.441 127.324C234.75 127.136 234.85 126.732 234.662 126.422C234.476 126.11 234.073 126.008 233.76 126.193L234.096 126.761ZM236.575 124.427C236.268 124.625 236.181 125.033 236.378 125.339C236.576 125.645 236.985 125.733 237.292 125.535L236.575 124.427ZM76.95 162.546C76.6414 161.561 76.8169 160.369 77.5891 158.945C78.3619 157.517 79.6987 155.923 81.5838 154.192C85.3512 150.732 91.1932 146.832 98.6935 142.736C113.686 134.55 135.184 125.652 159.629 117.994L159.235 116.734C134.732 124.411 113.149 133.339 98.0616 141.578C90.5218 145.694 84.5732 149.655 80.691 153.22C78.7513 155.001 77.2985 156.709 76.4285 158.315C75.5578 159.922 75.2372 161.494 75.6904 162.941L76.95 162.546ZM159.629 117.994C184.075 110.334 206.807 105.375 223.789 103.542C232.286 102.626 239.31 102.496 244.377 103.188C246.913 103.534 248.921 104.08 250.369 104.811C251.817 105.541 252.641 106.418 252.95 107.404L254.209 107.009C253.756 105.563 252.596 104.455 250.963 103.632C249.333 102.809 247.164 102.236 244.555 101.879C239.333 101.167 232.188 101.309 223.647 102.23C206.556 104.074 183.738 109.057 159.235 116.734L159.629 117.994ZM106.001 167.188C105.138 167.243 104.296 167.292 103.472 167.335L103.541 168.654C104.369 168.611 105.218 168.56 106.085 168.505L106.001 167.188ZM106.005 167.188L103.468 167.335L103.545 168.654L106.082 168.505L106.005 167.188ZM100.629 167.463C99.9827 167.487 99.3508 167.507 98.7331 167.522L98.7656 168.842C99.3895 168.826 100.027 168.807 100.677 168.782L100.629 167.463ZM100.632 167.463L98.7287 167.522L98.77 168.841L100.673 168.782L100.632 167.463ZM95.5765 167.564C89.6171 167.569 85.162 167.113 82.0751 166.224C78.9662 165.329 77.4212 164.05 76.95 162.546L75.6904 162.941C76.3646 165.092 78.4671 166.558 81.7098 167.492C84.9745 168.432 89.5758 168.889 95.5774 168.884L95.5765 167.564ZM233.753 126.197C232.792 126.783 231.81 127.365 230.811 127.939L231.468 129.084C232.477 128.504 233.469 127.917 234.441 127.324L233.753 126.197ZM231.476 129.079L234.433 127.329L233.76 126.193L230.803 127.943L231.476 129.079ZM252.95 107.404C253.177 108.13 253.03 109.106 252.383 110.355C251.741 111.592 250.657 113.002 249.181 114.534C246.231 117.593 241.812 121.039 236.575 124.427L237.292 125.535C242.574 122.118 247.084 118.61 250.131 115.45C251.652 113.872 252.832 112.357 253.555 110.962C254.271 109.578 254.587 108.217 254.209 107.009L252.95 107.404Z" fill="#4C4C4C"/>
</g>
<g opacity="0.85">
<path opacity="0.85" d="M209.238 170.28V161.468" stroke="#3785D7" stroke-width="1.5" stroke-linecap="round" stroke-linejoin="round"/>
<path opacity="0.85" d="M221.664 156.753H213.975" stroke="#3785D7" stroke-width="1.5" stroke-linecap="round" stroke-linejoin="round"/>
<path opacity="0.85" d="M214.532 162.074L212.228 159.712" stroke="#3785D7" stroke-width="1.5" stroke-linecap="round" stroke-linejoin="round"/>
<path opacity="0.85" d="M216.535 164.086L216.26 163.765" stroke="#3785D7" stroke-width="1.5" stroke-linecap="round" stroke-linejoin="round"/>
<path opacity="0.85" d="M218.793 166.356L218.674 166.2" stroke="#3785D7" stroke-width="1.5" stroke-linecap="round" stroke-linejoin="round"/>
<path opacity="0.85" d="M214.788 151.194L212.228 153.785" stroke="#3785D7" stroke-width="1.5" stroke-linecap="round" stroke-linejoin="round"/>
<path opacity="0.85" d="M217.595 148.355L216.645 149.319" stroke="#3785D7" stroke-width="1.5" stroke-linecap="round" stroke-linejoin="round"/>
<path opacity="0.85" d="M206.248 159.712L203.341 162.68" stroke="#3785D7" stroke-width="1.5" stroke-linecap="round" stroke-linejoin="round"/>
<path opacity="0.85" d="M201.156 164.831L199.922 166.117" stroke="#3785D7" stroke-width="1.5" stroke-linecap="round" stroke-linejoin="round"/>
</g>
<g opacity="0.85">
<path opacity="0.85" d="M95.5431 10.399L94.4853 17.8707" stroke="#DDDDDD" stroke-width="1.64352" stroke-linecap="round" stroke-linejoin="round"/>
<path opacity="0.85" d="M83.3847 20.3765L89.9046 21.2991" stroke="#DDDDDD" stroke-width="1.64352" stroke-linecap="round" stroke-linejoin="round"/>
<path opacity="0.85" d="M90.0691 16.7212L91.7394 19" stroke="#DDDDDD" stroke-width="1.64352" stroke-linecap="round" stroke-linejoin="round"/>
<path opacity="0.85" d="M88.6133 14.7747L88.8069 15.0803" stroke="#DDDDDD" stroke-width="1.64352" stroke-linecap="round" stroke-linejoin="round"/>
<path opacity="0.85" d="M86.9697 12.5791L87.0521 12.7263" stroke="#DDDDDD" stroke-width="1.64352" stroke-linecap="round" stroke-linejoin="round"/>
<path opacity="0.85" d="M88.5476 25.915L91.0283 24.0251" stroke="#DDDDDD" stroke-width="1.64352" stroke-linecap="round" stroke-linejoin="round"/>
<path opacity="0.85" d="M85.8261 27.9857L86.7481 27.2817" stroke="#DDDDDD" stroke-width="1.64352" stroke-linecap="round" stroke-linejoin="round"/>
<path opacity="0.85" d="M96.8086 19.7175L99.6298 17.5499" stroke="#DDDDDD" stroke-width="1.64352" stroke-linecap="round" stroke-linejoin="round"/>
<path opacity="0.85" d="M101.741 15.9889L102.942 15.0463" stroke="#DDDDDD" stroke-width="1.64352" stroke-linecap="round" stroke-linejoin="round"/>
</g>
<path opacity="0.12" fill-rule="evenodd" clip-rule="evenodd" d="M85.6552 143.962C77.1756 133.632 71.0564 121.114 68.2978 107.083C64.5246 87.892 67.642 68.945 75.9319 52.8H224.794C228.268 59.5864 230.865 66.9651 232.408 74.8183C237.411 100.264 230.299 125.282 215.077 143.907C201.304 140.613 179.247 136.84 150.48 136.84C121.555 136.84 99.413 140.656 85.6552 143.962Z" fill="#4C4C4C"/>
<path d="M241.12 43.12H59.8398C55.9517 43.12 52.7998 46.2719 52.7998 50.16V124.08C52.7998 127.968 55.9517 131.12 59.8398 131.12H241.12C245.008 131.12 248.16 127.968 248.16 124.08V50.16C248.16 46.2719 245.008 43.12 241.12 43.12Z" fill="white" fill-opacity="0.94" stroke="#3785D7" stroke-width="1.5"/>
<path opacity="0.3" d="M221.936 39.16H226.374M232.144 39.16H242.88C248.226 39.16 252.56 43.4939 252.56 48.84V52.6045M252.56 59.7748V65.1526M252.56 69.186V72.7711M252.56 118.482V126.28C252.56 131.626 248.226 135.96 242.88 135.96H235.251M230.369 135.96H226.374M73.2545 135.96H66.5972M61.2712 135.96H58.0803C52.7342 135.96 48.4003 131.626 48.4003 126.28V123.64M48.4003 114.001V116.16M48.4003 109.52V104.142M48.4003 94.7303V87.1119M48.4003 70.5305V67.8415M48.4003 59.7748V48.84C48.4003 43.4939 52.7342 39.16 58.0803 39.16H66.5972" stroke="#3785D7" stroke-width="1.5" stroke-linecap="round"/>
<path d="M104.253 101.112C104.253 102.96 105.573 104.28 107.685 104.28H124.159C126.323 104.28 127.538 103.013 127.538 101.165C127.538 99.264 126.323 97.9968 124.159 97.9968H114.074V97.8912L123.525 86.7504C125.743 84.1104 127.168 81.4704 127.168 78.0384C127.168 72.2304 122.944 67.7952 116.133 67.7952C109.744 67.7952 105.731 71.3856 104.939 75.24C104.887 75.5568 104.834 75.8736 104.834 76.1376C104.834 78.0912 106.259 79.4112 108.16 79.4112C109.639 79.4112 110.747 78.5664 111.487 77.0352C112.437 75.0816 113.757 74.0256 115.816 74.0256C118.351 74.0256 119.776 75.768 119.776 78.144C119.776 79.992 119.037 81.4704 117.664 83.1072L106.471 96.5184C104.834 98.472 104.253 99.5808 104.253 101.112ZM132.679 97.5216C134.21 102.168 137.748 104.861 143.556 104.861C149.364 104.861 152.901 102.168 154.432 97.5216C154.96 95.8848 155.172 93.8784 155.172 86.328C155.172 78.7776 154.96 76.7712 154.432 75.1344C152.901 70.488 149.364 67.7952 143.556 67.7952C137.748 67.7952 134.21 70.488 132.679 75.1344C132.151 76.7712 131.94 78.7776 131.94 86.328C131.94 93.8784 132.151 95.8848 132.679 97.5216ZM139.965 96.2016C139.648 95.2512 139.49 94.1952 139.49 86.328C139.49 78.4608 139.648 77.4048 139.965 76.4544C140.493 74.8704 141.655 74.0784 143.556 74.0784C145.456 74.0784 146.618 74.8704 147.146 76.4544C147.463 77.4048 147.621 78.4608 147.621 86.328C147.621 94.1952 147.463 95.2512 147.146 96.2016C146.618 97.7856 145.456 98.5776 143.556 98.5776C141.655 98.5776 140.493 97.7856 139.965 96.2016ZM160.962 97.5216C162.493 102.168 166.031 104.861 171.839 104.861C177.647 104.861 181.184 102.168 182.716 97.5216C183.244 95.8848 183.455 93.8784 183.455 86.328C183.455 78.7776 183.244 76.7712 182.716 75.1344C181.184 70.488 177.647 67.7952 171.839 67.7952C166.031 67.7952 162.493 70.488 160.962 75.1344C160.434 76.7712 160.223 78.7776 160.223 86.328C160.223 93.8784 160.434 95.8848 160.962 97.5216ZM168.248 96.2016C167.932 95.2512 167.773 94.1952 167.773 86.328C167.773 78.4608 167.932 77.4048 168.248 76.4544C168.776 74.8704 169.938 74.0784 171.839 74.0784C173.74 74.0784 174.901 74.8704 175.429 76.4544C175.746 77.4048 175.904 78.4608 175.904 86.328C175.904 94.1952 175.746 95.2512 175.429 96.2016C174.901 97.7856 173.74 98.5776 171.839 98.5776C169.938 98.5776 168.776 97.7856 168.248 96.2016Z" fill="#4C4C4C"/>
<path d="M192.332 89.452H196.82C196.996 89.452 197.084 89.5399 197.084 89.7159V94.204C197.084 96.008 198.228 97.064 199.768 97.064C201.308 97.064 202.452 96.008 202.452 94.204V89.7159C202.452 89.5399 202.54 89.452 202.716 89.452H207.204C208.92 89.452 209.976 88.3959 209.976 86.8559C209.976 85.3159 208.92 84.26 207.204 84.26H202.716C202.54 84.26 202.452 84.1719 202.452 83.9959V79.5079C202.452 77.7039 201.308 76.6479 199.768 76.6479C198.228 76.6479 197.084 77.7039 197.084 79.5079V83.9959C197.084 84.1719 196.996 84.26 196.82 84.26H192.332C190.616 84.26 189.56 85.3159 189.56 86.8559C189.56 88.3959 190.616 89.452 192.332 89.452Z" fill="#4C4C4C"/>
</g>
<defs>
<clipPath id="clip0_948_13757">
<rect width="300.96" height="176" fill="white"/>
</clipPath>
</defs>
</svg>
