<svg width="223" height="53" viewBox="0 0 223 53" fill="none" xmlns="http://www.w3.org/2000/svg">
<g filter="url(#filter0_d_1587_4684)">
<rect x="2" y="1" width="218.738" height="49" rx="8" fill="white" shape-rendering="crispEdges"/>
<rect x="2.5" y="1.5" width="217.738" height="48" rx="7.5" stroke="#BDBDBD" shape-rendering="crispEdges"/>
<g clip-path="url(#clip0_1587_4684)">
<path d="M37.7376 25.6837C37.7376 25.1399 37.6934 24.5931 37.599 24.0581H30.0266V27.1388H34.363C34.183 28.1324 33.6048 29.0113 32.7582 29.5698V31.5687H35.3453C36.8645 30.1754 37.7376 28.1177 37.7376 25.6837Z" fill="#4285F4"/>
<path d="M30.0267 33.5C32.1919 33.5 34.0179 32.7916 35.3483 31.5687L32.7612 29.5698C32.0415 30.0578 31.1123 30.3341 30.0296 30.3341C27.9352 30.3341 26.1594 28.9261 25.5222 27.033H22.8525V29.0936C24.2154 31.7951 26.9912 33.5 30.0267 33.5Z" fill="#34A853"/>
<path d="M25.5192 27.033C25.183 26.0394 25.183 24.9635 25.5192 23.97V21.9093H22.8525C21.7139 24.1699 21.7139 26.8331 22.8525 29.0936L25.5192 27.033Z" fill="#FBBC04"/>
<path d="M30.0267 20.6659C31.1713 20.6483 32.2775 21.0774 33.1064 21.8652L35.3985 19.5812C33.9471 18.2231 32.0208 17.4765 30.0267 17.5C26.9912 17.5 24.2154 19.2049 22.8525 21.9093L25.5192 23.97C26.1535 22.0739 27.9323 20.6659 30.0267 20.6659Z" fill="#EA4335"/>
</g>
<path d="M50.1998 30.098C49.5465 30.098 48.9585 29.986 48.4358 29.762C47.9132 29.5287 47.5025 29.202 47.2038 28.782C46.9052 28.362 46.7558 27.872 46.7558 27.312H48.4638C48.5012 27.732 48.6645 28.0773 48.9538 28.348C49.2525 28.6187 49.6678 28.754 50.1998 28.754C50.7505 28.754 51.1798 28.6233 51.4878 28.362C51.7958 28.0913 51.9498 27.746 51.9498 27.326C51.9498 26.9993 51.8518 26.7333 51.6558 26.528C51.4692 26.3227 51.2312 26.164 50.9418 26.052C50.6618 25.94 50.2698 25.8187 49.7658 25.688C49.1312 25.52 48.6132 25.352 48.2118 25.184C47.8198 25.0067 47.4838 24.736 47.2038 24.372C46.9238 24.008 46.7838 23.5227 46.7838 22.916C46.7838 22.356 46.9238 21.866 47.2038 21.446C47.4838 21.026 47.8758 20.704 48.3798 20.48C48.8838 20.256 49.4672 20.144 50.1298 20.144C51.0725 20.144 51.8425 20.382 52.4398 20.858C53.0465 21.3247 53.3825 21.9687 53.4478 22.79H51.6838C51.6558 22.4353 51.4878 22.132 51.1798 21.88C50.8718 21.628 50.4658 21.502 49.9618 21.502C49.5045 21.502 49.1312 21.6187 48.8418 21.852C48.5525 22.0853 48.4078 22.4213 48.4078 22.86C48.4078 23.1587 48.4965 23.406 48.6738 23.602C48.8605 23.7887 49.0938 23.938 49.3738 24.05C49.6538 24.162 50.0365 24.2833 50.5218 24.414C51.1658 24.5913 51.6885 24.7687 52.0898 24.946C52.5005 25.1233 52.8458 25.3987 53.1258 25.772C53.4152 26.136 53.5598 26.626 53.5598 27.242C53.5598 27.7367 53.4245 28.2033 53.1538 28.642C52.8925 29.0807 52.5052 29.4353 51.9918 29.706C51.4878 29.9673 50.8905 30.098 50.1998 30.098ZM57.0391 20.27V30H55.4431V20.27H57.0391ZM66.1765 23.07C65.9245 22.5847 65.5745 22.2207 65.1265 21.978C64.6785 21.726 64.1605 21.6 63.5725 21.6C62.9285 21.6 62.3545 21.7447 61.8505 22.034C61.3465 22.3233 60.9498 22.734 60.6605 23.266C60.3805 23.798 60.2405 24.414 60.2405 25.114C60.2405 25.814 60.3805 26.4347 60.6605 26.976C60.9498 27.508 61.3465 27.9187 61.8505 28.208C62.3545 28.4973 62.9285 28.642 63.5725 28.642C64.4405 28.642 65.1451 28.3993 65.6865 27.914C66.2278 27.4287 66.5591 26.7707 66.6805 25.94H63.0265V24.666H68.3885V25.912C68.2858 26.668 68.0151 27.3633 67.5765 27.998C67.1471 28.6327 66.5825 29.1413 65.8825 29.524C65.1918 29.8973 64.4218 30.084 63.5725 30.084C62.6578 30.084 61.8225 29.874 61.0665 29.454C60.3105 29.0247 59.7085 28.432 59.2605 27.676C58.8218 26.92 58.6025 26.066 58.6025 25.114C58.6025 24.162 58.8218 23.308 59.2605 22.552C59.7085 21.796 60.3105 21.208 61.0665 20.788C61.8318 20.3587 62.6671 20.144 63.5725 20.144C64.6085 20.144 65.5278 20.4007 66.3305 20.914C67.1425 21.418 67.7305 22.1367 68.0945 23.07H66.1765ZM77.9566 30H76.3606L71.5586 22.734V30H69.9626V20.256H71.5586L76.3606 27.508V20.256H77.9566V30ZM85.2712 20.27V26.472C85.2712 27.2093 85.4625 27.7647 85.8452 28.138C86.2372 28.5113 86.7785 28.698 87.4692 28.698C88.1692 28.698 88.7105 28.5113 89.0932 28.138C89.4852 27.7647 89.6812 27.2093 89.6812 26.472V20.27H91.2772V26.444C91.2772 27.2373 91.1045 27.9093 90.7592 28.46C90.4138 29.0107 89.9518 29.4213 89.3732 29.692C88.7945 29.9627 88.1552 30.098 87.4552 30.098C86.7552 30.098 86.1158 29.9627 85.5372 29.692C84.9678 29.4213 84.5152 29.0107 84.1792 28.46C83.8432 27.9093 83.6752 27.2373 83.6752 26.444V20.27H85.2712ZM100.159 23.168C100.159 23.6627 100.043 24.1293 99.8092 24.568C99.5758 25.0067 99.2025 25.366 98.6892 25.646C98.1758 25.9167 97.5178 26.052 96.7152 26.052H94.9512V30H93.3552V20.27H96.7152C97.4618 20.27 98.0918 20.4007 98.6052 20.662C99.1278 20.914 99.5152 21.2593 99.7672 21.698C100.029 22.1367 100.159 22.6267 100.159 23.168ZM96.7152 24.75C97.3218 24.75 97.7745 24.6147 98.0732 24.344C98.3718 24.064 98.5212 23.672 98.5212 23.168C98.5212 22.104 97.9192 21.572 96.7152 21.572H94.9512V24.75H96.7152ZM117.988 20.27L115.104 30H113.298L111.254 22.636L109.084 30L107.292 30.014L104.534 20.27H106.228L108.244 28.194L110.428 20.27H112.22L114.25 28.152L116.28 20.27H117.988ZM120.9 20.27V30H119.304V20.27H120.9ZM129.282 20.27V21.572H126.692V30H125.096V21.572H122.492V20.27H129.282ZM138.668 20.27V30H137.072V25.744H132.494V30H130.898V20.27H132.494V24.442H137.072V20.27H138.668ZM151.448 23.07C151.196 22.5847 150.846 22.2207 150.398 21.978C149.95 21.726 149.432 21.6 148.844 21.6C148.2 21.6 147.626 21.7447 147.122 22.034C146.618 22.3233 146.221 22.734 145.932 23.266C145.652 23.798 145.512 24.414 145.512 25.114C145.512 25.814 145.652 26.4347 145.932 26.976C146.221 27.508 146.618 27.9187 147.122 28.208C147.626 28.4973 148.2 28.642 148.844 28.642C149.712 28.642 150.417 28.3993 150.958 27.914C151.499 27.4287 151.831 26.7707 151.952 25.94H148.298V24.666H153.66V25.912C153.557 26.668 153.287 27.3633 152.848 27.998C152.419 28.6327 151.854 29.1413 151.154 29.524C150.463 29.8973 149.693 30.084 148.844 30.084C147.929 30.084 147.094 29.874 146.338 29.454C145.582 29.0247 144.98 28.432 144.532 27.676C144.093 26.92 143.874 26.066 143.874 25.114C143.874 24.162 144.093 23.308 144.532 22.552C144.98 21.796 145.582 21.208 146.338 20.788C147.103 20.3587 147.939 20.144 148.844 20.144C149.88 20.144 150.799 20.4007 151.602 20.914C152.414 21.418 153.002 22.1367 153.366 23.07H151.448ZM159.672 30.098C158.767 30.098 157.931 29.888 157.166 29.468C156.41 29.0387 155.808 28.446 155.36 27.69C154.921 26.9247 154.702 26.066 154.702 25.114C154.702 24.162 154.921 23.308 155.36 22.552C155.808 21.796 156.41 21.208 157.166 20.788C157.931 20.3587 158.767 20.144 159.672 20.144C160.587 20.144 161.422 20.3587 162.178 20.788C162.943 21.208 163.545 21.796 163.984 22.552C164.423 23.308 164.642 24.162 164.642 25.114C164.642 26.066 164.423 26.9247 163.984 27.69C163.545 28.446 162.943 29.0387 162.178 29.468C161.422 29.888 160.587 30.098 159.672 30.098ZM159.672 28.712C160.316 28.712 160.89 28.5673 161.394 28.278C161.898 27.9793 162.29 27.5593 162.57 27.018C162.859 26.4673 163.004 25.8327 163.004 25.114C163.004 24.3953 162.859 23.7653 162.57 23.224C162.29 22.6827 161.898 22.2673 161.394 21.978C160.89 21.6887 160.316 21.544 159.672 21.544C159.028 21.544 158.454 21.6887 157.95 21.978C157.446 22.2673 157.049 22.6827 156.76 23.224C156.48 23.7653 156.34 24.3953 156.34 25.114C156.34 25.8327 156.48 26.4673 156.76 27.018C157.049 27.5593 157.446 27.9793 157.95 28.278C158.454 28.5673 159.028 28.712 159.672 28.712ZM170.651 30.098C169.745 30.098 168.91 29.888 168.145 29.468C167.389 29.0387 166.787 28.446 166.339 27.69C165.9 26.9247 165.681 26.066 165.681 25.114C165.681 24.162 165.9 23.308 166.339 22.552C166.787 21.796 167.389 21.208 168.145 20.788C168.91 20.3587 169.745 20.144 170.651 20.144C171.565 20.144 172.401 20.3587 173.157 20.788C173.922 21.208 174.524 21.796 174.963 22.552C175.401 23.308 175.621 24.162 175.621 25.114C175.621 26.066 175.401 26.9247 174.963 27.69C174.524 28.446 173.922 29.0387 173.157 29.468C172.401 29.888 171.565 30.098 170.651 30.098ZM170.651 28.712C171.295 28.712 171.869 28.5673 172.373 28.278C172.877 27.9793 173.269 27.5593 173.549 27.018C173.838 26.4673 173.983 25.8327 173.983 25.114C173.983 24.3953 173.838 23.7653 173.549 23.224C173.269 22.6827 172.877 22.2673 172.373 21.978C171.869 21.6887 171.295 21.544 170.651 21.544C170.007 21.544 169.433 21.6887 168.929 21.978C168.425 22.2673 168.028 22.6827 167.739 23.224C167.459 23.7653 167.319 24.3953 167.319 25.114C167.319 25.8327 167.459 26.4673 167.739 27.018C168.028 27.5593 168.425 27.9793 168.929 28.278C169.433 28.5673 170.007 28.712 170.651 28.712ZM184.233 23.07C183.981 22.5847 183.631 22.2207 183.183 21.978C182.735 21.726 182.217 21.6 181.629 21.6C180.985 21.6 180.411 21.7447 179.907 22.034C179.403 22.3233 179.006 22.734 178.717 23.266C178.437 23.798 178.297 24.414 178.297 25.114C178.297 25.814 178.437 26.4347 178.717 26.976C179.006 27.508 179.403 27.9187 179.907 28.208C180.411 28.4973 180.985 28.642 181.629 28.642C182.497 28.642 183.202 28.3993 183.743 27.914C184.284 27.4287 184.616 26.7707 184.737 25.94H181.083V24.666H186.445V25.912C186.342 26.668 186.072 27.3633 185.633 27.998C185.204 28.6327 184.639 29.1413 183.939 29.524C183.248 29.8973 182.478 30.084 181.629 30.084C180.714 30.084 179.879 29.874 179.123 29.454C178.367 29.0247 177.765 28.432 177.317 27.676C176.878 26.92 176.659 26.066 176.659 25.114C176.659 24.162 176.878 23.308 177.317 22.552C177.765 21.796 178.367 21.208 179.123 20.788C179.888 20.3587 180.724 20.144 181.629 20.144C182.665 20.144 183.584 20.4007 184.387 20.914C185.199 21.418 185.787 22.1367 186.151 23.07H184.233ZM189.615 28.712H192.905V30H188.019V20.27H189.615V28.712ZM195.836 21.558V24.414H199.196V25.716H195.836V28.698H199.616V30H194.24V20.256H199.616V21.558H195.836Z" fill="#757575"/>
</g>
<defs>
<filter id="filter0_d_1587_4684" x="0" y="0" width="222.738" height="53" filterUnits="userSpaceOnUse" color-interpolation-filters="sRGB">
<feFlood flood-opacity="0" result="BackgroundImageFix"/>
<feColorMatrix in="SourceAlpha" type="matrix" values="0 0 0 0 0 0 0 0 0 0 0 0 0 0 0 0 0 0 127 0" result="hardAlpha"/>
<feOffset dy="1"/>
<feGaussianBlur stdDeviation="1"/>
<feComposite in2="hardAlpha" operator="out"/>
<feColorMatrix type="matrix" values="0 0 0 0 0.0125 0 0 0 0 0.0125 0 0 0 0 0.0125 0 0 0 0.2 0"/>
<feBlend mode="normal" in2="BackgroundImageFix" result="effect1_dropShadow_1587_4684"/>
<feBlend mode="normal" in="SourceGraphic" in2="effect1_dropShadow_1587_4684" result="shape"/>
</filter>
<clipPath id="clip0_1587_4684">
<rect width="15.7377" height="16" fill="white" transform="translate(22 17.5)"/>
</clipPath>
</defs>
</svg>
