<svg width="40" height="8" viewBox="0 0 40 8" fill="none" xmlns="http://www.w3.org/2000/svg">
<path d="M2.66289 7.11C2.12956 7.11 1.68289 6.99 1.32289 6.75C0.96289 6.51 0.709557 6.16667 0.56289 5.72C0.509557 5.54667 0.469557 5.37333 0.44289 5.2C0.416223 5.02 0.40289 4.81333 0.40289 4.58C0.40289 4.34667 0.416223 4.14333 0.44289 3.97C0.469557 3.79 0.509557 3.61333 0.56289 3.44C0.709557 2.99333 0.96289 2.65 1.32289 2.41C1.68289 2.17 2.12956 2.05 2.66289 2.05C3.19622 2.05 3.64289 2.17 4.00289 2.41C4.36289 2.65 4.61622 2.99333 4.76289 3.44C4.81622 3.61333 4.85622 3.79 4.88289 3.97C4.90956 4.14333 4.92289 4.34667 4.92289 4.58C4.92289 4.81333 4.90956 5.02 4.88289 5.2C4.85622 5.37333 4.81622 5.54667 4.76289 5.72C4.61622 6.16667 4.36289 6.51 4.00289 6.75C3.64289 6.99 3.19622 7.11 2.66289 7.11ZM2.66289 5.93C2.85622 5.93 3.01622 5.88333 3.14289 5.79C3.26956 5.69667 3.35956 5.56333 3.41289 5.39C3.44622 5.28333 3.46956 5.16333 3.48289 5.03C3.49622 4.89667 3.50289 4.74667 3.50289 4.58C3.50289 4.41333 3.49622 4.26333 3.48289 4.13C3.46956 3.99667 3.44622 3.87667 3.41289 3.77C3.35956 3.59667 3.26956 3.46333 3.14289 3.37C3.01622 3.27667 2.85622 3.23 2.66289 3.23C2.46956 3.23 2.30956 3.27667 2.18289 3.37C2.05622 3.46333 1.96622 3.59667 1.91289 3.77C1.87956 3.87667 1.85622 3.99667 1.84289 4.13C1.82956 4.26333 1.82289 4.41333 1.82289 4.58C1.82289 4.74667 1.82956 4.89667 1.84289 5.03C1.85622 5.16333 1.87956 5.28333 1.91289 5.39C1.96622 5.56333 2.05622 5.69667 2.18289 5.79C2.30956 5.88333 2.46956 5.93 2.66289 5.93ZM9.75562 7.06C9.55562 7.06 9.38896 6.99667 9.25562 6.87C9.12229 6.73667 9.05562 6.55333 9.05562 6.32V4.12C9.05562 3.85333 8.99229 3.64 8.86562 3.48C8.73896 3.32 8.54896 3.24 8.29562 3.24C8.04229 3.24 7.85229 3.32 7.72562 3.48C7.60562 3.64 7.54562 3.85333 7.54562 4.12V6.32C7.54562 6.55333 7.47896 6.73667 7.34562 6.87C7.21229 6.99667 7.04562 7.06 6.84562 7.06C6.63896 7.06 6.46896 6.99667 6.33562 6.87C6.20896 6.73667 6.14562 6.55333 6.14562 6.32V2.84C6.14562 2.60667 6.20896 2.42667 6.33562 2.3C6.46896 2.16667 6.63896 2.1 6.84562 2.1C7.01229 2.1 7.15562 2.14667 7.27562 2.24C7.39562 2.32667 7.47562 2.45 7.51562 2.61H7.52562C7.64562 2.45667 7.80896 2.32667 8.01562 2.22C8.22896 2.10667 8.49229 2.05 8.80562 2.05C9.07229 2.05 9.30896 2.09667 9.51562 2.19C9.72229 2.27667 9.89562 2.4 10.0356 2.56C10.1756 2.72 10.279 2.91 10.3456 3.13C10.419 3.35 10.4556 3.59 10.4556 3.85V6.32C10.4556 6.55333 10.389 6.73667 10.2556 6.87C10.129 6.99667 9.96229 7.06 9.75562 7.06ZM18.0462 7.06C17.8462 7.06 17.6796 6.99667 17.5462 6.87C17.4129 6.73667 17.3462 6.55333 17.3462 6.32V4.12C17.3462 3.85333 17.2829 3.64 17.1562 3.48C17.0296 3.32 16.8396 3.24 16.5862 3.24C16.3329 3.24 16.1429 3.32 16.0162 3.48C15.8962 3.64 15.8362 3.85333 15.8362 4.12V6.32C15.8362 6.55333 15.7696 6.73667 15.6362 6.87C15.5029 6.99667 15.3362 7.06 15.1362 7.06C14.9296 7.06 14.7596 6.99667 14.6262 6.87C14.4996 6.73667 14.4362 6.55333 14.4362 6.32V0.88C14.4362 0.646666 14.4996 0.466667 14.6262 0.34C14.7596 0.206666 14.9296 0.14 15.1362 0.14C15.3362 0.14 15.5029 0.206666 15.6362 0.34C15.7696 0.466667 15.8362 0.646666 15.8362 0.88V2.57H15.8462C15.9596 2.43667 16.1162 2.31667 16.3162 2.21C16.5229 2.10333 16.7829 2.05 17.0962 2.05C17.3629 2.05 17.5996 2.09667 17.8062 2.19C18.0129 2.27667 18.1862 2.4 18.3262 2.56C18.4662 2.72 18.5696 2.91 18.6362 3.13C18.7096 3.35 18.7462 3.59 18.7462 3.85V6.32C18.7462 6.55333 18.6796 6.73667 18.5462 6.87C18.4196 6.99667 18.2529 7.06 18.0462 7.06ZM22.1836 7.11C21.6503 7.11 21.2036 6.99 20.8436 6.75C20.4836 6.51 20.2303 6.16667 20.0836 5.72C20.0303 5.54667 19.9903 5.37333 19.9636 5.2C19.9369 5.02 19.9236 4.81333 19.9236 4.58C19.9236 4.34667 19.9369 4.14333 19.9636 3.97C19.9903 3.79 20.0303 3.61333 20.0836 3.44C20.2303 2.99333 20.4836 2.65 20.8436 2.41C21.2036 2.17 21.6503 2.05 22.1836 2.05C22.7169 2.05 23.1636 2.17 23.5236 2.41C23.8836 2.65 24.1369 2.99333 24.2836 3.44C24.3369 3.61333 24.3769 3.79 24.4036 3.97C24.4303 4.14333 24.4436 4.34667 24.4436 4.58C24.4436 4.81333 24.4303 5.02 24.4036 5.2C24.3769 5.37333 24.3369 5.54667 24.2836 5.72C24.1369 6.16667 23.8836 6.51 23.5236 6.75C23.1636 6.99 22.7169 7.11 22.1836 7.11ZM22.1836 5.93C22.3769 5.93 22.5369 5.88333 22.6636 5.79C22.7903 5.69667 22.8803 5.56333 22.9336 5.39C22.9669 5.28333 22.9903 5.16333 23.0036 5.03C23.0169 4.89667 23.0236 4.74667 23.0236 4.58C23.0236 4.41333 23.0169 4.26333 23.0036 4.13C22.9903 3.99667 22.9669 3.87667 22.9336 3.77C22.8803 3.59667 22.7903 3.46333 22.6636 3.37C22.5369 3.27667 22.3769 3.23 22.1836 3.23C21.9903 3.23 21.8303 3.27667 21.7036 3.37C21.5769 3.46333 21.4869 3.59667 21.4336 3.77C21.4003 3.87667 21.3769 3.99667 21.3636 4.13C21.3503 4.26333 21.3436 4.41333 21.3436 4.58C21.3436 4.74667 21.3503 4.89667 21.3636 5.03C21.3769 5.16333 21.4003 5.28333 21.4336 5.39C21.4869 5.56333 21.5769 5.69667 21.7036 5.79C21.8303 5.88333 21.9903 5.93 22.1836 5.93ZM27.4982 7.06C27.2649 7.06 27.0849 6.99667 26.9582 6.87C26.8315 6.74333 26.7015 6.52 26.5682 6.2L25.3182 3.09C25.2715 2.97667 25.2482 2.86667 25.2482 2.76C25.2482 2.56667 25.3149 2.41 25.4482 2.29C25.5815 2.16333 25.7449 2.1 25.9382 2.1C26.2515 2.1 26.4682 2.26333 26.5882 2.59L27.5182 5.12H27.5382L28.4282 2.59C28.5415 2.26333 28.7549 2.1 29.0682 2.1C29.2615 2.1 29.4215 2.16333 29.5482 2.29C29.6815 2.41 29.7482 2.56667 29.7482 2.76C29.7482 2.86667 29.7249 2.97667 29.6782 3.09L28.4282 6.2C28.2949 6.52 28.1649 6.74333 28.0382 6.87C27.9115 6.99667 27.7315 7.06 27.4982 7.06ZM32.9463 7.11C32.3797 7.11 31.913 6.99 31.5463 6.75C31.1797 6.51 30.9263 6.17 30.7863 5.73C30.733 5.57667 30.693 5.41 30.6663 5.23C30.6397 5.05 30.6263 4.83333 30.6263 4.58C30.6263 4.32667 30.6363 4.11 30.6563 3.93C30.683 3.74333 30.723 3.57333 30.7763 3.42C30.923 2.98 31.1763 2.64333 31.5363 2.41C31.903 2.17 32.3463 2.05 32.8663 2.05C33.4063 2.05 33.853 2.17 34.2063 2.41C34.5663 2.64333 34.8163 2.97667 34.9563 3.41C35.0097 3.58333 35.0497 3.76 35.0763 3.94C35.103 4.11333 35.1163 4.31333 35.1163 4.54C35.1163 4.67333 35.0763 4.78333 34.9963 4.87C34.9163 4.95667 34.803 5 34.6563 5H32.0863C32.0463 5 32.0263 5.02 32.0263 5.06C32.0263 5.14667 32.043 5.24 32.0763 5.34C32.143 5.54667 32.263 5.70333 32.4363 5.81C32.6097 5.91667 32.823 5.97 33.0763 5.97C33.243 5.97 33.403 5.94667 33.5563 5.9C33.7097 5.85333 33.853 5.79333 33.9863 5.72C34.153 5.62 34.313 5.57 34.4663 5.57C34.613 5.57 34.733 5.62 34.8263 5.72C34.9263 5.81333 34.9763 5.93667 34.9763 6.09C34.9763 6.29667 34.883 6.46333 34.6963 6.59C34.463 6.75 34.2063 6.87667 33.9263 6.97C33.653 7.06333 33.3263 7.11 32.9463 7.11ZM33.6763 4.07C33.7163 4.07 33.7363 4.05 33.7363 4.01C33.7363 3.93 33.7297 3.86333 33.7163 3.81C33.7097 3.75667 33.6997 3.70333 33.6863 3.65C33.633 3.47667 33.533 3.34667 33.3863 3.26C33.2463 3.16667 33.0763 3.12 32.8763 3.12C32.6763 3.12 32.5063 3.16667 32.3663 3.26C32.2263 3.34667 32.1297 3.47667 32.0763 3.65C32.063 3.70333 32.0497 3.75667 32.0363 3.81C32.0297 3.86333 32.0263 3.93 32.0263 4.01C32.0263 4.05 32.0463 4.07 32.0863 4.07H33.6763ZM37.0398 7.06C36.8331 7.06 36.6631 6.99667 36.5298 6.87C36.4031 6.73667 36.3398 6.55333 36.3398 6.32V2.84C36.3398 2.60667 36.4031 2.42667 36.5298 2.3C36.6631 2.16667 36.8331 2.1 37.0398 2.1C37.2064 2.1 37.3498 2.14667 37.4698 2.24C37.5964 2.33333 37.6798 2.46667 37.7198 2.64V2.65H37.7298C37.8431 2.49 38.0031 2.35 38.2098 2.23C38.4231 2.11 38.6698 2.05 38.9498 2.05C39.0631 2.05 39.1598 2.06 39.2398 2.08C39.3198 2.09333 39.3931 2.11667 39.4598 2.15C39.5864 2.21 39.6798 2.29 39.7398 2.39C39.7998 2.49 39.8298 2.6 39.8298 2.72C39.8298 2.92667 39.7664 3.09667 39.6398 3.23C39.5131 3.36333 39.3464 3.43 39.1398 3.43C39.0531 3.43 38.9531 3.41333 38.8398 3.38C38.7264 3.34667 38.6064 3.33 38.4798 3.33C38.2198 3.33 38.0298 3.42 37.9098 3.6C37.7964 3.77333 37.7398 4.02333 37.7398 4.35V6.32C37.7398 6.55333 37.6731 6.73667 37.5398 6.87C37.4064 6.99667 37.2398 7.06 37.0398 7.06Z" fill="black"/>
</svg>
