<svg width="25" height="8" viewBox="0 0 25 8" fill="none" xmlns="http://www.w3.org/2000/svg">
<path d="M3.58715 7.06C3.42048 7.06 3.27715 7.01667 3.15715 6.93C3.03715 6.83667 2.95715 6.71 2.91715 6.55H2.90715C2.78715 6.70333 2.62048 6.83667 2.40715 6.95C2.20048 7.05667 1.94048 7.11 1.62715 7.11C1.36048 7.11 1.12382 7.06667 0.917149 6.98C0.717149 6.88667 0.550482 6.76 0.417149 6.6C0.283816 6.44 0.180482 6.25 0.107149 6.03C0.0404822 5.81 0.00714884 5.57 0.00714884 5.31V2.84C0.00714884 2.60667 0.0738155 2.42667 0.207149 2.3C0.340482 2.16667 0.510482 2.1 0.717149 2.1C0.917149 2.1 1.08048 2.16667 1.20715 2.3C1.34048 2.42667 1.40715 2.60667 1.40715 2.84V5.04C1.40715 5.30667 1.46715 5.52 1.58715 5.68C1.70715 5.84 1.89382 5.92 2.14715 5.92C2.39382 5.92 2.57715 5.84 2.69715 5.68C2.82382 5.52 2.88715 5.30667 2.88715 5.04V2.84C2.88715 2.60667 2.95048 2.42667 3.07715 2.3C3.21048 2.16667 3.38048 2.1 3.58715 2.1C3.78715 2.1 3.95382 2.16667 4.08715 2.3C4.22048 2.42667 4.28715 2.60667 4.28715 2.84V6.32C4.28715 6.55333 4.22048 6.73667 4.08715 6.87C3.96048 6.99667 3.79382 7.06 3.58715 7.06ZM7.61543 7.11C7.23543 7.11 6.89543 7.06667 6.59543 6.98C6.29543 6.88667 6.04543 6.77667 5.84543 6.65C5.61876 6.51 5.50543 6.32333 5.50543 6.09C5.50543 5.93667 5.5621 5.80667 5.67543 5.7C5.78876 5.58667 5.92543 5.53 6.08543 5.53C6.20543 5.53 6.3421 5.57333 6.49543 5.66C6.66876 5.76 6.8521 5.84333 7.04543 5.91C7.23876 5.97667 7.4521 6.01 7.68543 6.01C7.93876 6.01 8.12543 5.97 8.24543 5.89C8.3721 5.80333 8.43543 5.69333 8.43543 5.56C8.43543 5.44667 8.38876 5.36 8.29543 5.3C8.20876 5.23333 8.0221 5.18333 7.73543 5.15L7.20543 5.09C6.67876 5.03 6.2821 4.87333 6.01543 4.62C5.75543 4.36667 5.62543 4.03 5.62543 3.61C5.62543 3.13 5.79876 2.75 6.14543 2.47C6.4921 2.19 6.98543 2.05 7.62543 2.05C7.89876 2.05 8.15876 2.07667 8.40543 2.13C8.65876 2.18333 8.88876 2.26333 9.09543 2.37C9.36876 2.51 9.50543 2.69333 9.50543 2.92C9.50543 3.07333 9.45543 3.20333 9.35543 3.31C9.25543 3.41667 9.1221 3.47 8.95543 3.47C8.9021 3.47 8.84543 3.46333 8.78543 3.45C8.72543 3.43 8.64876 3.39667 8.55543 3.35C8.25543 3.21 7.92876 3.14 7.57543 3.14C7.3621 3.14 7.20543 3.17667 7.10543 3.25C7.0121 3.31667 6.96543 3.40667 6.96543 3.52C6.96543 3.63333 7.00876 3.72333 7.09543 3.79C7.1821 3.85 7.3621 3.89333 7.63543 3.92L8.16543 3.98C8.73876 4.04667 9.14876 4.20667 9.39543 4.46C9.64876 4.71333 9.77543 5.04333 9.77543 5.45C9.77543 5.95 9.58543 6.35333 9.20543 6.66C8.8321 6.96 8.3021 7.11 7.61543 7.11ZM14.5243 7.06C14.3576 7.06 14.2143 7.01667 14.0943 6.93C13.9743 6.83667 13.8943 6.71 13.8543 6.55H13.8443C13.7243 6.70333 13.5576 6.83667 13.3443 6.95C13.1376 7.05667 12.8776 7.11 12.5643 7.11C12.2976 7.11 12.0609 7.06667 11.8543 6.98C11.6543 6.88667 11.4876 6.76 11.3543 6.6C11.2209 6.44 11.1176 6.25 11.0443 6.03C10.9776 5.81 10.9443 5.57 10.9443 5.31V2.84C10.9443 2.60667 11.0109 2.42667 11.1443 2.3C11.2776 2.16667 11.4476 2.1 11.6543 2.1C11.8543 2.1 12.0176 2.16667 12.1443 2.3C12.2776 2.42667 12.3443 2.60667 12.3443 2.84V5.04C12.3443 5.30667 12.4043 5.52 12.5243 5.68C12.6443 5.84 12.8309 5.92 13.0843 5.92C13.3309 5.92 13.5143 5.84 13.6343 5.68C13.7609 5.52 13.8243 5.30667 13.8243 5.04V2.84C13.8243 2.60667 13.8876 2.42667 14.0143 2.3C14.1476 2.16667 14.3176 2.1 14.5243 2.1C14.7243 2.1 14.8909 2.16667 15.0243 2.3C15.1576 2.42667 15.2243 2.60667 15.2243 2.84V6.32C15.2243 6.55333 15.1576 6.73667 15.0243 6.87C14.8976 6.99667 14.7309 7.06 14.5243 7.06ZM20.9625 6C21.0425 6.13333 21.0825 6.27 21.0825 6.41C21.0825 6.59667 21.0125 6.75333 20.8725 6.88C20.7392 7 20.5759 7.06 20.3825 7.06C20.1292 7.06 19.9392 6.97 19.8125 6.79L19.6925 6.62H19.6825C19.5559 6.77333 19.3692 6.89333 19.1225 6.98C18.8825 7.06667 18.6125 7.11 18.3125 7.11C17.6859 7.11 17.2225 6.98 16.9225 6.72C16.6225 6.45333 16.4725 6.09 16.4725 5.63C16.4725 5.09667 16.6559 4.70333 17.0225 4.45C17.3892 4.19667 17.8725 4.07 18.4725 4.07H19.3425C19.3825 4.07 19.4025 4.05 19.4025 4.01V3.96C19.4025 3.73333 19.3225 3.55667 19.1625 3.43C19.0025 3.30333 18.7525 3.24 18.4125 3.24C18.2592 3.24 18.1125 3.25667 17.9725 3.29C17.8392 3.31667 17.7259 3.34667 17.6325 3.38C17.5725 3.4 17.5159 3.41667 17.4625 3.43C17.4092 3.44333 17.3559 3.45 17.3025 3.45C17.1359 3.45 16.9992 3.4 16.8925 3.3C16.7925 3.2 16.7425 3.06333 16.7425 2.89C16.7425 2.78333 16.7692 2.68 16.8225 2.58C16.8759 2.48 16.9692 2.39667 17.1025 2.33C17.2625 2.25 17.4625 2.18333 17.7025 2.13C17.9492 2.07667 18.2425 2.05 18.5825 2.05C19.3159 2.05 19.8592 2.22333 20.2125 2.57C20.5659 2.91667 20.7425 3.39333 20.7425 4V5.32C20.7425 5.43333 20.7492 5.52333 20.7625 5.59C20.7759 5.65667 20.7992 5.72 20.8325 5.78L20.9625 6ZM18.5025 6.06C19.1025 6.06 19.4025 5.83667 19.4025 5.39V5.06C19.4025 5.02 19.3825 5 19.3425 5H18.6625C18.0892 5 17.8025 5.18333 17.8025 5.55C17.8025 5.89 18.0359 6.06 18.5025 6.06ZM23.6357 7.06C23.0824 7.06 22.6957 6.92667 22.4757 6.66C22.2557 6.39333 22.1457 6.01333 22.1457 5.52V0.88C22.1457 0.646666 22.2091 0.466667 22.3357 0.34C22.4691 0.206666 22.6391 0.14 22.8457 0.14C23.0457 0.14 23.2124 0.206666 23.3457 0.34C23.4791 0.466667 23.5457 0.646666 23.5457 0.88V5.4C23.5457 5.54 23.5691 5.64333 23.6157 5.71C23.6691 5.77667 23.7524 5.82 23.8657 5.84C24.0657 5.87333 24.2091 5.94667 24.2957 6.06C24.3824 6.16667 24.4257 6.29667 24.4257 6.45C24.4257 6.62333 24.3657 6.77 24.2457 6.89C24.1324 7.00333 23.9491 7.06 23.6957 7.06H23.6357Z" fill="black"/>
</svg>
