<svg width="36" height="22" viewBox="0 0 36 22" fill="none" xmlns="http://www.w3.org/2000/svg">
<path fill-rule="evenodd" clip-rule="evenodd" d="M24.8554 0.065398C23.6544 -0.00556938 22.4549 0.000108012 21.2539 0.000108012C21.2456 0.000108012 15.1685 0.000108012 15.1685 0.000108012C13.9441 0.000108012 12.7445 -0.00556938 11.5442 0.065398C10.453 0.129269 9.39014 0.265526 8.33207 0.569976C6.10481 1.2101 4.15983 2.54713 2.75391 4.44267C1.35626 6.32614 0.599804 8.63187 0.599804 10.9993C0.599804 13.3697 1.35626 15.674 2.75391 17.5574C4.15983 19.4523 6.10481 20.79 8.33207 21.4301C9.39014 21.7346 10.453 21.8701 11.5442 21.9347C12.7445 22.0057 13.9441 21.9993 15.145 21.9993C15.1533 21.9993 21.2318 22 21.2318 22C22.4549 21.9993 23.6544 22.0057 24.8554 21.9347C25.9459 21.8701 27.0088 21.7346 28.0668 21.4301C30.2941 20.79 32.2391 19.4523 33.645 17.5574C35.0427 15.674 35.7998 13.3697 35.7998 11.0001C35.7998 8.63187 35.0427 6.32614 33.645 4.44267C32.2391 2.54713 30.2941 1.2101 28.0668 0.569976C27.0088 0.265526 25.9459 0.129269 24.8554 0.065398Z" fill="#C4C4C4"/>
<path fill-rule="evenodd" clip-rule="evenodd" d="M11.2976 20.5809C6.15159 20.5809 1.97994 16.2915 1.97994 11.0003C1.97994 5.70906 6.15159 1.41968 11.2976 1.41968C16.4436 1.41968 20.6152 5.70906 20.6152 11.0003C20.6152 16.2915 16.4436 20.5809 11.2976 20.5809Z" fill="white"/>
</svg>
