<svg width="36" height="22" viewBox="0 0 36 22" fill="none" xmlns="http://www.w3.org/2000/svg">
<path fill-rule="evenodd" clip-rule="evenodd" d="M10.9444 0.065398C12.1454 -0.00556938 13.3449 0.000108012 14.5459 0.000108012C14.5542 0.000108012 20.6313 0.000108012 20.6313 0.000108012C21.8557 0.000108012 23.0553 -0.00556938 24.2556 0.065398C25.3468 0.129269 26.4097 0.265526 27.4677 0.569976C29.695 1.2101 31.64 2.54713 33.0459 4.44267C34.4435 6.32614 35.2 8.63187 35.2 10.9993C35.2 13.3697 34.4435 15.674 33.0459 17.5574C31.64 19.4523 29.695 20.79 27.4677 21.4301C26.4097 21.7346 25.3468 21.8701 24.2556 21.9347C23.0553 22.0057 21.8557 21.9993 20.6548 21.9993C20.6465 21.9993 14.568 22 14.568 22C13.3449 21.9993 12.1454 22.0057 10.9444 21.9347C9.85393 21.8701 8.79103 21.7346 7.73296 21.4301C5.50569 20.79 3.56072 19.4523 2.15479 17.5574C0.757145 15.674 0 13.3697 0 11.0001C0 8.63187 0.757145 6.32614 2.15479 4.44267C3.56072 2.54713 5.50569 1.2101 7.73296 0.569976C8.79103 0.265526 9.85393 0.129269 10.9444 0.065398Z" fill="#2AB930"/>
<path fill-rule="evenodd" clip-rule="evenodd" d="M24.5022 20.5809C29.6482 20.5809 33.8199 16.2915 33.8199 11.0003C33.8199 5.70906 29.6482 1.41968 24.5022 1.41968C19.3562 1.41968 15.1846 5.70906 15.1846 11.0003C15.1846 16.2915 19.3562 20.5809 24.5022 20.5809Z" fill="white"/>
</svg>
