<svg width="96" height="62" viewBox="0 0 96 62" fill="none" xmlns="http://www.w3.org/2000/svg">
<rect x="0.5" y="0.5" width="95" height="61" rx="4.5" stroke="#7B61FF" stroke-dasharray="10 5"/>
<g clip-path="url(#clip0_210_9114)">
<rect x="54.9091" y="20.9091" width="18.1818" height="18.1818" rx="4" fill="#2AB930"/>
<rect x="54.9091" y="20.9091" width="18.1818" height="18.1818" rx="4" stroke="white"/>
<path d="M61.3908 30.0001C61.2416 29.8659 61.0471 29.793 60.8463 29.7962C60.6456 29.7994 60.4535 29.8783 60.3086 30.0172C60.1636 30.1561 60.0765 30.3447 60.0648 30.5451C60.0531 30.7455 60.1176 30.943 60.2454 31.0978L62.0113 32.9512C62.0852 33.0288 62.1741 33.0906 62.2725 33.133C62.3709 33.1754 62.4769 33.1974 62.584 33.1978C62.6906 33.1984 62.7962 33.1776 62.8946 33.1366C62.993 33.0957 63.0821 33.0353 63.1568 32.9592L68.5499 27.391C68.6231 27.3158 68.6806 27.2269 68.7194 27.1294C68.7582 27.032 68.7774 26.9278 68.7759 26.8229C68.7744 26.7181 68.7523 26.6145 68.7108 26.5181C68.6693 26.4218 68.6092 26.3346 68.534 26.2615C68.4588 26.1883 68.3699 26.1307 68.2725 26.092C68.175 26.0532 68.0708 26.034 67.966 26.0355C67.8611 26.037 67.7575 26.0591 67.6612 26.1006C67.5648 26.1421 67.4776 26.2022 67.4045 26.2774L62.592 31.2569L61.3908 30.0001Z" fill="white"/>
</g>
<g clip-path="url(#clip1_210_9114)">
<g clip-path="url(#clip2_210_9114)">
<rect x="21.9091" y="21.9091" width="16.1818" height="16.1818" rx="3" fill="white" stroke="#9A9A9A" stroke-width="2"/>
</g>
</g>
<defs>
<clipPath id="clip0_210_9114">
<rect width="20" height="20" fill="white" transform="translate(54 20)"/>
</clipPath>
<clipPath id="clip1_210_9114">
<rect width="20" height="20" fill="white" transform="translate(20 20)"/>
</clipPath>
<clipPath id="clip2_210_9114">
<rect width="18.3333" height="18.3333" fill="white" transform="translate(20.8333 20.8334)"/>
</clipPath>
</defs>
</svg>
